<svg width="35" height="35" viewBox="0 0 35 35" fill="none" xmlns="http://www.w3.org/2000/svg">
<ellipse cx="17.5" cy="17.5" rx="17.5" ry="17.5" fill="#154ECE"/>
<mask id="mask0" mask-type="alpha" maskUnits="userSpaceOnUse" x="0" y="0" width="35" height="35">
<circle cx="17.5" cy="17.5" r="17.5" fill="#0040CE"/>
</mask>
<g mask="url(#mask0)">
<path fill-rule="evenodd" clip-rule="evenodd" d="M24.7949 36.1417L21.7871 21.0664L41.848 10.6879L19.7464 13.0418L18.2753 4.75586L13.428 13.7145L4.75562 14.6286L11.3543 21.7126L7.24129 27.7395H9.74883L12.7222 23.1811L24.7949 36.1417ZM12.723 23.1798L21.5802 32.6885L18.0238 13.4037C17.6709 11.36 16.5187 12.9095 16.5187 12.9095L12.0063 18.8416L6.23836 15.8753L5.87183 15.8247L11.3551 21.7113L11.3951 21.6527L7.29268 17.2934L12.4793 20.0617L17.0257 13.7744L20.3399 31.158L12.7684 23.1103L12.723 23.1798ZM15.7675 22.0537V18.5115L14.0773 21.1025L15.7675 22.0537Z" fill="white"/>
</g>
</svg>
