<svg width="35" height="35" viewBox="0 0 35 35" fill="none" xmlns="http://www.w3.org/2000/svg">
<rect y="0.000976562" width="35" height="35" rx="17.5" fill="#9F264F"/>
<path d="M16.5991 12.5949H25.8096C26.4237 12.5949 26.833 12.0673 26.833 11.4341V8.26829C26.833 7.63512 26.4237 7.00195 25.8096 7.00195H15.1663H10.5611C9.94704 7.10748 9.33301 7.63512 9.33301 8.26829V26.8412C9.33301 27.4743 9.94704 28.002 10.5611 28.002H15.1663H25.8096C26.4237 28.002 26.833 27.4743 26.833 26.8412V23.6753C26.833 23.0422 26.4237 22.409 25.8096 22.409H16.5991V21.2482V20.404H19.7716C20.3856 20.404 20.795 19.8763 20.795 19.2432V15.6552C20.795 15.0221 20.3856 14.3889 19.7716 14.3889H16.5991V13.8613V12.5949ZM16.7014 15.7607H19.6693V19.3487H16.7014H15.371V20.1929V20.615V21.3537V22.5145V23.6753H16.5991H25.7073V26.8412H15.1663H10.4587V8.26829H15.1663H25.8096V11.4341H16.7014H15.371V12.7004V13.8613V14.5999V15.0221V15.7607H16.7014Z" fill="white"/>
</svg>
